<?xml version="1.0" encoding="UTF-8"?>
<svg width="291px" height="49px" viewBox="0 0 291 49" version="1.1" xmlns="http://www.w3.org/2000/svg" xmlns:xlink="http://www.w3.org/1999/xlink">
    <g id="首页" stroke="none" stroke-width="1" fill="none" fill-rule="evenodd">
        <g transform="translate(-133.000000, -990.000000)" id="编组-14备份">
            <g transform="translate(133.000000, 990.000000)">
                <g id="编组-13">
                    <path d="M0.0396823406,23.1336637 C0.0148808777,23.5845543 -3.69055803e-14,24.0389171 -3.69055803e-14,24.4962561 C-3.69055803e-14,30.2829334 2.0123907,35.598383 5.36852466,39.7898302 C9.54161881,37.5046234 14.002906,35.683204 18.7067514,34.4004723 C23.3942279,33.1202208 28.1967832,32.4049466 33.007771,32.2601061 C24.7206101,23.0552911 9.34866343,22.4888257 0.0396823406,23.1336637" id="Fill-15" fill="#0096DF"></path>
                    <path d="M28.3477249,21.1144278 C30.4558492,22.6297972 32.2971098,24.5042918 33.7375788,26.8113239 C36.5763542,26.6327533 39.1204883,25.8053765 41.4433933,24.5722478 C44.6839525,22.8554905 46.7747158,20.1352661 48.0713363,17.844603 C47.9780828,17.5147435 47.879869,17.1873642 47.7742147,16.8639531 C46.4964434,18.2463867 44.8158962,19.5901299 42.5629314,20.6828824 C36.741036,23.507273 31.7648704,22.3411082 28.3477249,21.1144278" id="Fill-16" fill="#0096DF"></path>
                    <path d="M28.3060584,15.3919367 C30.4270795,16.9087942 32.2792528,18.787753 33.7276582,21.1032176 C36.5708979,20.9266311 39.1180082,20.0987583 41.4433933,18.8651336 C43.7400088,17.6473817 45.4547819,15.9236801 46.726601,14.2069228 C46.5033878,13.7257744 46.269758,13.2505784 46.0177751,12.7877831 C45.0410935,13.5739895 43.9096508,14.3205135 42.5629314,14.9747761 C36.7182186,17.8110714 31.7261802,16.6225853 28.3060584,15.3919367" id="Fill-17" fill="#0096DF"></path>
                    <path d="M27.366579,20.4439947 C29.4583344,20.9861547 31.4097135,21.1934949 33.2375813,21.1295071 C25.9970422,12.8160568 13.0814324,11.3706275 3.68167796,11.5839201 C2.98128465,12.7108985 2.36868852,13.8978966 1.85579426,15.1379697 C9.4430578,14.8646576 19.8413191,15.5977888 27.366579,20.4439947" id="Fill-18" fill="#0096DF"></path>
                    <path d="M27.4053189,26.1626664 C29.4881457,26.697882 31.4305963,26.902742 33.2515197,26.8377622 C25.3115794,17.7038795 10.5264353,16.8452528 1.05376456,17.3804684 C0.707536134,18.5223277 0.442160481,19.6994052 0.265078036,20.9042602 C7.94361095,20.4732108 19.3359149,20.9419585 27.4053189,26.1626664" id="Fill-19" fill="#0096DF"></path>
                    <path d="M33.2254286,15.4219465 C27.1639511,8.47555273 17.1302712,6.33419442 8.51176286,5.94381939 C7.30293956,6.98548084 6.19778637,8.14321312 5.21168021,9.40015126 C12.3019224,9.46265095 20.8713239,10.582189 27.332105,14.7294896 C29.4327889,15.2756178 31.3921045,15.4859342 33.2254286,15.4219465" id="Fill-20" fill="#0096DF"></path>
                    <path d="M33.7185809,15.3972442 C36.5657888,15.2211538 39.1143871,14.3922889 41.4432445,13.15668 C42.723496,12.478608 43.8172405,11.6383345 44.7631683,10.7350652 C40.3549563,4.25642706 32.923942,0 24.4969009,0 C19.5331362,0 14.9180799,1.48064734 11.0594683,4.01783699 C19.649207,4.87299143 28.9165216,7.72863187 33.7185809,15.3972442" id="Fill-21" fill="#0096DF"></path>
                    <path d="M48.7874041,21.372363 C47.4357244,23.1615406 45.4650001,24.98296 42.5627329,26.389203 C36.765639,29.2026809 31.8078266,28.0578454 28.391177,26.8381094 C30.3991035,28.288003 32.1471106,30.0826368 33.5508734,32.2517728 C33.9724983,32.2428442 34.3946192,32.2304435 34.816244,32.2304435 C39.0607664,32.2304435 43.225428,32.6857984 47.2640983,33.5335124 C48.3747078,30.7364034 48.9927602,27.6892956 48.9927602,24.4963553 C48.9927602,23.4368368 48.9173638,22.3956714 48.7874041,21.372363" id="Fill-22" fill="#0096DF"></path>
                    <path d="M34.8161944,33.720317 C29.5324908,33.720317 24.2448189,34.433111 19.0990113,35.8368738 C14.6114346,37.0625621 10.3520314,38.7932082 6.35849985,40.9519275 C7.45174834,42.1557905 8.6615637,43.2515192 9.97157697,44.2182802 C10.0271322,44.2589546 10.0841756,44.2966528 10.1397309,44.3378232 C10.413043,44.536235 10.6903234,44.7306784 10.972068,44.9176815 C11.0583771,44.9747248 11.1461743,45.029288 11.2339714,45.0858354 C11.4899225,45.2505171 11.7468657,45.4117266 12.0087691,45.5679758 C12.1144234,45.6309715 12.2225577,45.690495 12.3297001,45.7529947 C12.5772187,45.8943631 12.8257293,46.0337473 13.0782082,46.1671792 C13.2007274,46.231663 13.3242387,46.2936666 13.44775,46.3556703 C13.6898123,46.4786855 13.9323706,46.5977325 14.1793932,46.7128113 C14.3143131,46.774815 14.4497291,46.8363226 14.5866332,46.8958461 C14.8257193,47.0029885 15.0677816,47.1051705 15.312324,47.2043763 C15.4571645,47.2634038 15.6025011,47.3204472 15.7493258,47.3764985 C15.9879158,47.4687599 16.2289861,47.555565 16.4715444,47.639394 C16.6263055,47.6934612 16.7810666,47.7465363 16.9373158,47.7971313 C17.1764019,47.8745119 17.4174722,47.9474282 17.6605265,48.0173683 C17.821736,48.0644911 17.9829455,48.1121099 18.1466352,48.1557604 C18.3891935,48.2202443 18.634728,48.2797678 18.8797664,48.3368111 C19.0459362,48.3759974 19.2106179,48.4161758 19.3772838,48.4513939 C19.6262904,48.5054611 19.8792654,48.5505997 20.1312482,48.5962344 C20.297418,48.6264922 20.4625958,48.6582381 20.6292616,48.6845276 C20.8911651,48.7261941 21.1550526,48.758932 21.4199322,48.793158 C21.5796537,48.8125032 21.7388791,48.8368086 21.9005846,48.8531776 C22.1912577,48.8839314 22.4854031,48.9042686 22.7785564,48.9246058 C22.9164525,48.9345264 23.0523645,48.9489112 23.1897646,48.9558556 C23.6227982,48.979169 24.0588079,48.9920658 24.4968017,48.9920658 C25.0449141,48.9920658 25.5875701,48.9672643 26.1262578,48.9320462 C26.2676262,48.9221257 26.4080025,48.911213 26.5483787,48.8998043 C27.0250629,48.860122 27.4987708,48.808535 27.9670224,48.7425631 C28.0300181,48.7331385 28.0935099,48.7276822 28.1574977,48.7182576 C28.6818006,48.639885 29.2006472,48.5411752 29.7145335,48.4285765 C29.8380448,48.402783 29.960564,48.3725252 30.0835793,48.3432595 C30.5220691,48.2415735 30.9565908,48.1284788 31.3856561,48.0024874 C31.4704771,47.978182 31.5557941,47.9558607 31.6401191,47.9305632 C32.1416047,47.7777862 32.6381299,47.6081441 33.1257267,47.4241173 C33.2189802,47.3893952 33.3102496,47.350705 33.402511,47.3149909 C33.82612,47.1488211 34.2427846,46.9722346 34.6549849,46.7847356 C34.7378218,46.7470374 34.8221468,46.7108272 34.9039916,46.6721369 C35.3841479,46.4464436 35.8558717,46.2073575 36.317675,45.9514064 C36.3647978,45.9261089 36.4099364,45.8983313 36.4565632,45.8725378 C36.8811642,45.6344437 37.2968367,45.3829569 37.7045728,45.1200614 C37.7745129,45.0769068 37.843461,45.0332563 37.911913,44.9876216 C38.810718,44.3973468 39.6688487,43.7495325 40.4793605,43.0501313 C40.5299554,43.0064807 40.5805504,42.9638222 40.6301534,42.9201716 C41.4476096,42.2034094 42.217447,41.434068 42.9327212,40.6156197 C42.963475,40.5808976 42.9942288,40.5456796 43.0244866,40.5099655 C43.7467052,39.6746522 44.4143606,38.7912241 45.0200123,37.8621613 C45.0353892,37.83984 45.048782,37.8180147 45.0631668,37.7951973 C45.6564178,36.8790313 46.1886572,35.9207028 46.6569088,34.9261641 C42.8121861,34.1389657 38.8504004,33.720317 34.8161944,33.720317" id="Fill-23" fill="#007BBD"></path>
                </g>
                <text id="南京气象科技创新研究院" font-family="PingFangSC-Semibold, PingFang SC" font-size="20" font-weight="500" letter-spacing="0.8" fill="#007BBD">
                    <tspan x="63.7344828" y="22.6724138">南京气象科技创新研究院</tspan>
                </text>
                <text id="Nanjing-Joint-Instit" font-family="ArialMT, Arial" font-size="10" font-weight="normal" letter-spacing="0.34" fill="#007BBD">
                    <tspan x="63.7793103" y="43.7258621">Nanjing Joint Institute for Atmospheric Sciences</tspan>
                </text>
            </g>
        </g>
    </g>
</svg>
